<svg id="container" width="1377.4505615234375" xmlns="http://www.w3.org/2000/svg" class="flowchart" height="991.2637329101562" viewBox="0 0 1377.4505615234375 991.2637329101562" role="graphics-document document" aria-roledescription="flowchart-v2"><style>#container{font-family:"trebuchet ms",verdana,arial,sans-serif;font-size:16px;fill:#333;}@keyframes edge-animation-frame{from{stroke-dashoffset:0;}}@keyframes dash{to{stroke-dashoffset:0;}}#container .edge-animation-slow{stroke-dasharray:9,5!important;stroke-dashoffset:900;animation:dash 50s linear infinite;stroke-linecap:round;}#container .edge-animation-fast{stroke-dasharray:9,5!important;stroke-dashoffset:900;animation:dash 20s linear infinite;stroke-linecap:round;}#container .error-icon{fill:#552222;}#container .error-text{fill:#552222;stroke:#552222;}#container .edge-thickness-normal{stroke-width:1px;}#container .edge-thickness-thick{stroke-width:3.5px;}#container .edge-pattern-solid{stroke-dasharray:0;}#container .edge-thickness-invisible{stroke-width:0;fill:none;}#container .edge-pattern-dashed{stroke-dasharray:3;}#container .edge-pattern-dotted{stroke-dasharray:2;}#container .marker{fill:#333333;stroke:#333333;}#container .marker.cross{stroke:#333333;}#container svg{font-family:"trebuchet ms",verdana,arial,sans-serif;font-size:16px;}#container p{margin:0;}#container .label{font-family:"trebuchet ms",verdana,arial,sans-serif;color:#333;}#container .cluster-label text{fill:#333;}#container .cluster-label span{color:#333;}#container .cluster-label span p{background-color:transparent;}#container .label text,#container span{fill:#333;color:#333;}#container .node rect,#container .node circle,#container .node ellipse,#container .node polygon,#container .node path{fill:#ECECFF;stroke:#9370DB;stroke-width:1px;}#container .rough-node .label text,#container .node .label text,#container .image-shape .label,#container .icon-shape .label{text-anchor:middle;}#container .node .katex path{fill:#000;stroke:#000;stroke-width:1px;}#container .rough-node .label,#container .node .label,#container .image-shape .label,#container .icon-shape .label{text-align:center;}#container .node.clickable{cursor:pointer;}#container .root .anchor path{fill:#333333!important;stroke-width:0;stroke:#333333;}#container .arrowheadPath{fill:#333333;}#container .edgePath .path{stroke:#333333;stroke-width:2.0px;}#container .flowchart-link{stroke:#333333;fill:none;}#container .edgeLabel{background-color:rgba(232,232,232, 0.8);text-align:center;}#container .edgeLabel p{background-color:rgba(232,232,232, 0.8);}#container .edgeLabel rect{opacity:0.5;background-color:rgba(232,232,232, 0.8);fill:rgba(232,232,232, 0.8);}#container .labelBkg{background-color:rgba(232, 232, 232, 0.5);}#container .cluster rect{fill:#ffffde;stroke:#aaaa33;stroke-width:1px;}#container .cluster text{fill:#333;}#container .cluster span{color:#333;}#container div.mermaidTooltip{position:absolute;text-align:center;max-width:200px;padding:2px;font-family:"trebuchet ms",verdana,arial,sans-serif;font-size:12px;background:hsl(80, 100%, 96.2745098039%);border:1px solid #aaaa33;border-radius:2px;pointer-events:none;z-index:100;}#container .flowchartTitleText{text-anchor:middle;font-size:18px;fill:#333;}#container rect.text{fill:none;stroke-width:0;}#container .icon-shape,#container .image-shape{background-color:rgba(232,232,232, 0.8);text-align:center;}#container .icon-shape p,#container .image-shape p{background-color:rgba(232,232,232, 0.8);padding:2px;}#container .icon-shape rect,#container .image-shape rect{opacity:0.5;background-color:rgba(232,232,232, 0.8);fill:rgba(232,232,232, 0.8);}#container .label-icon{display:inline-block;height:1em;overflow:visible;vertical-align:-0.125em;}#container .node .label-icon path{fill:currentColor;stroke:revert;stroke-width:revert;}#container :root{--mermaid-font-family:"trebuchet ms",verdana,arial,sans-serif;}</style><g><marker id="container_flowchart-v2-pointEnd" class="marker flowchart-v2" viewBox="0 0 10 10" refX="5" refY="5" markerUnits="userSpaceOnUse" markerWidth="8" markerHeight="8" orient="auto"><path d="M 0 0 L 10 5 L 0 10 z" class="arrowMarkerPath" style="stroke-width: 1; stroke-dasharray: 1, 0;"></path></marker><marker id="container_flowchart-v2-pointStart" class="marker flowchart-v2" viewBox="0 0 10 10" refX="4.5" refY="5" markerUnits="userSpaceOnUse" markerWidth="8" markerHeight="8" orient="auto"><path d="M 0 5 L 10 10 L 10 0 z" class="arrowMarkerPath" style="stroke-width: 1; stroke-dasharray: 1, 0;"></path></marker><marker id="container_flowchart-v2-circleEnd" class="marker flowchart-v2" viewBox="0 0 10 10" refX="11" refY="5" markerUnits="userSpaceOnUse" markerWidth="11" markerHeight="11" orient="auto"><circle cx="5" cy="5" r="5" class="arrowMarkerPath" style="stroke-width: 1; stroke-dasharray: 1, 0;"></circle></marker><marker id="container_flowchart-v2-circleStart" class="marker flowchart-v2" viewBox="0 0 10 10" refX="-1" refY="5" markerUnits="userSpaceOnUse" markerWidth="11" markerHeight="11" orient="auto"><circle cx="5" cy="5" r="5" class="arrowMarkerPath" style="stroke-width: 1; stroke-dasharray: 1, 0;"></circle></marker><marker id="container_flowchart-v2-crossEnd" class="marker cross flowchart-v2" viewBox="0 0 11 11" refX="12" refY="5.2" markerUnits="userSpaceOnUse" markerWidth="11" markerHeight="11" orient="auto"><path d="M 1,1 l 9,9 M 10,1 l -9,9" class="arrowMarkerPath" style="stroke-width: 2; stroke-dasharray: 1, 0;"></path></marker><marker id="container_flowchart-v2-crossStart" class="marker cross flowchart-v2" viewBox="0 0 11 11" refX="-1" refY="5.2" markerUnits="userSpaceOnUse" markerWidth="11" markerHeight="11" orient="auto"><path d="M 1,1 l 9,9 M 10,1 l -9,9" class="arrowMarkerPath" style="stroke-width: 2; stroke-dasharray: 1, 0;"></path></marker><g class="root"><g class="clusters"><g class="cluster" id="system" data-look="classic"><rect style="" x="8" y="154.25" width="1138.34375" height="674.8508834838867"></rect><g class="cluster-label" transform="translate(502.8359375, 154.25)"><foreignObject width="148.671875" height="24"><div xmlns="http://www.w3.org/1999/xhtml" style="display: table-cell; white-space: nowrap; line-height: 1.5; max-width: 200px; text-align: center;"><span class="nodeLabel"><p>AI KTU Notes System</p></span></div></foreignObject></g></g></g><g class="edgePaths"><path d="M633.496,55.52L664.448,65.808C695.399,76.097,757.303,96.673,788.255,113.128C819.207,129.583,819.207,141.917,826.218,151.929C833.228,161.942,847.249,169.634,854.259,173.48L861.27,177.326" id="L_Student_Auth_0" class="edge-thickness-normal edge-pattern-solid edge-thickness-normal edge-pattern-solid flowchart-link" style=";" data-edge="true" data-et="edge" data-id="L_Student_Auth_0" data-points="W3sieCI6NjMzLjQ5NTYzMzIxMzI4NDUsInkiOjU1LjUxOTg3MTU5OTcxMzg2fSx7IngiOjgxOS4yMDcwMzEyNSwieSI6MTE3LjI1fSx7IngiOjgxOS4yMDcwMzEyNSwieSI6MTU0LjI1fSx7IngiOjg2NC43NzY4MTc5MDg2NTM4LCJ5IjoxNzkuMjV9XQ==" marker-end="url(#container_flowchart-v2-pointEnd)"></path><path d="M858.238,56.272L881.804,66.435C905.369,76.598,952.499,96.924,976.064,113.254C999.629,129.583,999.629,141.917,993.337,151.904C987.045,161.891,974.461,169.533,968.169,173.353L961.876,177.174" id="L_Admin_Auth_0" class="edge-thickness-normal edge-pattern-solid edge-thickness-normal edge-pattern-solid flowchart-link" style=";" data-edge="true" data-et="edge" data-id="L_Admin_Auth_0" data-points="W3sieCI6ODU4LjIzODQ1OTE2Mzc2OTYsInkiOjU2LjI3MTU4Mjk3MzQ1NDV9LHsieCI6OTk5LjYyODkwNjI1LCJ5IjoxMTcuMjV9LHsieCI6OTk5LjYyODkwNjI1LCJ5IjoxNTQuMjV9LHsieCI6OTU4LjQ1NzQwNjg1MDk2MTUsInkiOjE3OS4yNX1d" marker-end="url(#container_flowchart-v2-pointEnd)"></path><path d="M888.77,233.25L883.01,239.417C877.249,245.583,865.728,257.917,913.836,274.394C961.943,290.871,1069.679,311.492,1123.547,321.803L1177.415,332.113" id="L_Auth_DB_0" class="edge-thickness-normal edge-pattern-solid edge-thickness-normal edge-pattern-solid flowchart-link" style=";" data-edge="true" data-et="edge" data-id="L_Auth_DB_0" data-points="W3sieCI6ODg4Ljc3MDMyNDcwNzAzMTIsInkiOjIzMy4yNX0seyJ4Ijo4NTQuMjA3MDMxMjUsInkiOjI3MC4yNX0seyJ4IjoxMTgxLjM0Mzc1LCJ5IjozMzIuODY1MDUzMTEyMjc0fV0=" marker-end="url(#container_flowchart-v2-pointEnd)"></path><path d="M1181.344,326.804L1146.749,317.379C1112.155,307.953,1042.966,289.101,1003.066,273.996C963.166,258.891,952.556,247.532,947.25,241.853L941.945,236.173" id="L_DB_Auth_0" class="edge-thickness-normal edge-pattern-solid edge-thickness-normal edge-pattern-solid flowchart-link" style=";" data-edge="true" data-et="edge" data-id="L_DB_Auth_0" data-points="W3sieCI6MTE4MS4zNDM3NSwieSI6MzI2LjgwNDQ2NjgxMjk3ODV9LHsieCI6OTczLjc3NzM0Mzc1LCJ5IjoyNzAuMjV9LHsieCI6OTM5LjIxNDA1MDI5Mjk2ODgsInkiOjIzMy4yNX1d" marker-end="url(#container_flowchart-v2-pointEnd)"></path><path d="M563.491,49.496L488.377,60.788C413.262,72.08,263.034,94.665,187.919,112.124C112.805,129.583,112.805,141.917,112.805,156.75C112.805,171.583,112.805,188.917,112.805,208.25C112.805,227.583,112.805,248.917,112.805,272.404C112.805,295.892,112.805,321.534,112.805,347.175C112.805,372.817,112.805,398.459,112.805,421.947C112.805,445.434,112.805,466.768,112.805,490.101C112.805,513.434,112.805,538.768,112.805,562.851C112.805,586.934,112.805,609.768,112.805,632.601C112.805,655.434,112.805,678.268,134.42,697.621C156.035,716.975,199.265,732.848,220.88,740.785L242.495,748.722" id="L_Student_Upload_0" class="edge-thickness-normal edge-pattern-solid edge-thickness-normal edge-pattern-solid flowchart-link" style=";" data-edge="true" data-et="edge" data-id="L_Student_Upload_0" data-points="W3sieCI6NTYzLjQ5MTI4MTI0MTM1MTksInkiOjQ5LjQ5NTU0MDYzMzAwMDh9LHsieCI6MTEyLjgwNDY4NzUsInkiOjExNy4yNX0seyJ4IjoxMTIuODA0Njg3NSwieSI6MTU0LjI1fSx7IngiOjExMi44MDQ2ODc1LCJ5IjoyMDYuMjV9LHsieCI6MTEyLjgwNDY4NzUsInkiOjI3MC4yNX0seyJ4IjoxMTIuODA0Njg3NSwieSI6MzQ3LjE3NTQ0MTc0MTk0MzM2fSx7IngiOjExMi44MDQ2ODc1LCJ5Ijo0MjQuMTAwODgzNDgzODg2N30seyJ4IjoxMTIuODA0Njg3NSwieSI6NDg4LjEwMDg4MzQ4Mzg4Njd9LHsieCI6MTEyLjgwNDY4NzUsInkiOjU2NC4xMDA4ODM0ODM4ODY3fSx7IngiOjExMi44MDQ2ODc1LCJ5Ijo2MzIuNjAwODgzNDgzODg2N30seyJ4IjoxMTIuODA0Njg3NSwieSI6NzAxLjEwMDg4MzQ4Mzg4Njd9LHsieCI6MjQ2LjI1MDEwMjc5NjA1MjYzLCJ5Ijo3NTAuMTAwODgzNDgzODg2N31d" marker-end="url(#container_flowchart-v2-pointEnd)"></path><path d="M319.781,804.101L319.781,808.268C319.781,812.434,319.781,820.768,319.781,831.101C319.781,841.434,319.781,853.768,319.781,865.434C319.781,877.101,319.781,888.101,319.781,893.601L319.781,899.101" id="L_Upload_Cloud_0" class="edge-thickness-normal edge-pattern-solid edge-thickness-normal edge-pattern-solid flowchart-link" style=";" data-edge="true" data-et="edge" data-id="L_Upload_Cloud_0" data-points="W3sieCI6MzE5Ljc4MTI1LCJ5Ijo4MDQuMTAwODgzNDgzODg2N30seyJ4IjozMTkuNzgxMjUsInkiOjgyOS4xMDA4ODM0ODM4ODY3fSx7IngiOjMxOS43ODEyNSwieSI6ODY2LjEwMDg4MzQ4Mzg4Njd9LHsieCI6MzE5Ljc4MTI1LCJ5Ijo5MDMuMTAwODgzNDgzODg2N31d" marker-end="url(#container_flowchart-v2-pointEnd)"></path><path d="M367.04,750.101L381.334,741.934C395.628,733.768,424.216,717.434,559.979,699.242C695.742,681.05,938.679,661,1060.148,650.974L1181.617,640.949" id="L_Upload_Gemini_0" class="edge-thickness-normal edge-pattern-solid edge-thickness-normal edge-pattern-solid flowchart-link" style=";" data-edge="true" data-et="edge" data-id="L_Upload_Gemini_0" data-points="W3sieCI6MzY3LjAzOTU3NjQ4MDI2MzIsInkiOjc1MC4xMDA4ODM0ODM4ODY3fSx7IngiOjQ1Mi44MDQ2ODc1LCJ5Ijo3MDEuMTAwODgzNDgzODg2N30seyJ4IjoxMTg1LjYwMzI4NDA2Njk4MjcsInkiOjY0MC42MTk5NTE2MTc4NTIzfV0=" marker-end="url(#container_flowchart-v2-pointEnd)"></path><path d="M1184.835,639.084L1026.163,649.42C867.492,659.756,550.148,680.429,400.321,698.493C250.493,716.557,268.181,732.013,277.025,739.741L285.87,747.469" id="L_Gemini_Upload_0" class="edge-thickness-normal edge-pattern-solid edge-thickness-normal edge-pattern-solid flowchart-link" style=";" data-edge="true" data-et="edge" data-id="L_Gemini_Upload_0" data-points="W3sieCI6MTE4NC44MzUyMDc0NTcxNzgsInkiOjYzOS4wODM3OTgzOTgyNDMxfSx7IngiOjIzMi44MDQ2ODc1LCJ5Ijo3MDEuMTAwODgzNDgzODg2N30seyJ4IjoyODguODgxNjgxNzQzNDIxMDQsInkiOjc1MC4xMDA4ODM0ODM4ODY3fV0=" marker-end="url(#container_flowchart-v2-pointEnd)"></path><path d="M416.711,750.101L446.03,741.934C475.348,733.768,533.984,717.434,563.303,697.851C592.621,678.268,592.621,655.434,592.621,632.601C592.621,609.768,592.621,586.934,592.621,562.851C592.621,538.768,592.621,513.434,592.621,490.101C592.621,466.768,592.621,445.434,690.079,423.468C787.538,401.502,982.454,378.903,1079.912,367.604L1177.37,356.305" id="L_Upload_DB_0" class="edge-thickness-normal edge-pattern-solid edge-thickness-normal edge-pattern-solid flowchart-link" style=";" data-edge="true" data-et="edge" data-id="L_Upload_DB_0" data-points="W3sieCI6NDE2LjcxMTE5NDQ5MDEzMTU2LCJ5Ijo3NTAuMTAwODgzNDgzODg2N30seyJ4Ijo1OTIuNjIxMDkzNzUsInkiOjcwMS4xMDA4ODM0ODM4ODY3fSx7IngiOjU5Mi42MjEwOTM3NSwieSI6NjMyLjYwMDg4MzQ4Mzg4Njd9LHsieCI6NTkyLjYyMTA5Mzc1LCJ5Ijo1NjQuMTAwODgzNDgzODg2N30seyJ4Ijo1OTIuNjIxMDkzNzUsInkiOjQ4OC4xMDA4ODM0ODM4ODY3fSx7IngiOjU5Mi42MjEwOTM3NSwieSI6NDI0LjEwMDg4MzQ4Mzg4Njd9LHsieCI6MTE4MS4zNDM3NSwieSI6MzU1Ljg0MzgzNzA4OTMzNjY2fV0=" marker-end="url(#container_flowchart-v2-pointEnd)"></path><path d="M625.386,69.027L633.832,77.064C642.279,85.101,659.173,101.176,667.62,115.379C676.066,129.583,676.066,141.917,676.066,156.75C676.066,171.583,676.066,188.917,676.066,208.25C676.066,227.583,676.066,248.917,676.066,272.404C676.066,295.892,676.066,321.534,676.066,347.175C676.066,372.817,676.066,398.459,696.252,417.257C716.438,436.056,756.809,448.01,776.995,453.988L797.181,459.965" id="L_Student_Study_0" class="edge-thickness-normal edge-pattern-solid edge-thickness-normal edge-pattern-solid flowchart-link" style=";" data-edge="true" data-et="edge" data-id="L_Student_Study_0" data-points="W3sieCI6NjI1LjM4NTcxMjE1NjA1MTEsInkiOjY5LjAyNjgzMjcwMTA5MTYyfSx7IngiOjY3Ni4wNjY0MDYyNSwieSI6MTE3LjI1fSx7IngiOjY3Ni4wNjY0MDYyNSwieSI6MTU0LjI1fSx7IngiOjY3Ni4wNjY0MDYyNSwieSI6MjA2LjI1fSx7IngiOjY3Ni4wNjY0MDYyNSwieSI6MjcwLjI1fSx7IngiOjY3Ni4wNjY0MDYyNSwieSI6MzQ3LjE3NTQ0MTc0MTk0MzM2fSx7IngiOjY3Ni4wNjY0MDYyNSwieSI6NDI0LjEwMDg4MzQ4Mzg4Njd9LHsieCI6ODAxLjAxNTkzMDE3NTc4MTIsInkiOjQ2MS4xMDA4ODM0ODM4ODY3fV0=" marker-end="url(#container_flowchart-v2-pointEnd)"></path><path d="M958.726,461.101L973.922,454.934C989.117,448.768,1019.508,436.434,1056.009,420.112C1092.51,403.791,1135.121,383.48,1156.427,373.325L1177.733,363.17" id="L_Study_DB_0" class="edge-thickness-normal edge-pattern-solid edge-thickness-normal edge-pattern-solid flowchart-link" style=";" data-edge="true" data-et="edge" data-id="L_Study_DB_0" data-points="W3sieCI6OTU4LjcyNjMxODM1OTM3NSwieSI6NDYxLjEwMDg4MzQ4Mzg4Njd9LHsieCI6MTA0OS44OTg0Mzc1LCJ5Ijo0MjQuMTAwODgzNDgzODg2N30seyJ4IjoxMTgxLjM0Mzc1LCJ5IjozNjEuNDQ5MjM1OTg0ODR9XQ==" marker-end="url(#container_flowchart-v2-pointEnd)"></path><path d="M1181.344,361.784L1128.188,372.17C1075.033,382.556,968.721,403.329,918.154,419.277C867.587,435.225,872.765,446.35,875.353,451.912L877.942,457.474" id="L_DB_Study_0" class="edge-thickness-normal edge-pattern-solid edge-thickness-normal edge-pattern-solid flowchart-link" style=";" data-edge="true" data-et="edge" data-id="L_DB_Study_0" data-points="W3sieCI6MTE4MS4zNDM3NSwieSI6MzYxLjc4NDAwMTkyMjcyODV9LHsieCI6ODYyLjQxMDE1NjI1LCJ5Ijo0MjQuMTAwODgzNDgzODg2N30seyJ4Ijo4NzkuNjI5Njk5NzA3MDMxMiwieSI6NDYxLjEwMDg4MzQ4Mzg4Njd9XQ==" marker-end="url(#container_flowchart-v2-pointEnd)"></path><path d="M857.844,515.101L847.454,523.268C837.064,531.434,816.284,547.768,870.668,565.251C925.053,582.734,1054.601,601.367,1119.376,610.684L1184.15,620.001" id="L_Study_Gemini_0" class="edge-thickness-normal edge-pattern-solid edge-thickness-normal edge-pattern-solid flowchart-link" style=";" data-edge="true" data-et="edge" data-id="L_Study_Gemini_0" data-points="W3sieCI6ODU3Ljg0NDQxODE3NDM0MjEsInkiOjUxNS4xMDA4ODM0ODM4ODY3fSx7IngiOjc5NS41MDM5MDYyNSwieSI6NTY0LjEwMDg4MzQ4Mzg4Njd9LHsieCI6MTE4OC4xMDkxNzk5MzU4ODMsInkiOjYyMC41NzAwMjM2MTIxMjA3fV0=" marker-end="url(#container_flowchart-v2-pointEnd)"></path><path d="M1201.768,613.601L1170.64,605.351C1139.511,597.101,1077.254,580.601,1033.496,564.535C989.738,548.469,964.481,532.838,951.852,525.022L939.223,517.206" id="L_Gemini_Study_0" class="edge-thickness-normal edge-pattern-solid edge-thickness-normal edge-pattern-solid flowchart-link" style=";" data-edge="true" data-et="edge" data-id="L_Gemini_Study_0" data-points="W3sieCI6MTIwMS43NjgzNjk5MTEzNTk3LCJ5Ijo2MTMuNjAwODgzNDgzODg2Nn0seyJ4IjoxMDE0Ljk5NjA5Mzc1LCJ5Ijo1NjQuMTAwODgzNDgzODg2N30seyJ4Ijo5MzUuODIxOTA1ODM4ODE1OCwieSI6NTE1LjEwMDg4MzQ4Mzg4Njd9XQ==" marker-end="url(#container_flowchart-v2-pointEnd)"></path><path d="M799.637,47.909L706.678,59.466C613.719,71.023,427.801,94.136,334.842,111.86C241.883,129.583,241.883,141.917,241.883,156.75C241.883,171.583,241.883,188.917,241.883,208.25C241.883,227.583,241.883,248.917,241.883,272.404C241.883,295.892,241.883,321.534,241.883,347.175C241.883,372.817,241.883,398.459,252.014,417.114C262.146,435.769,282.409,447.437,292.54,453.271L302.672,459.105" id="L_Admin_Manage_0" class="edge-thickness-normal edge-pattern-solid edge-thickness-normal edge-pattern-solid flowchart-link" style=";" data-edge="true" data-et="edge" data-id="L_Admin_Manage_0" data-points="W3sieCI6Nzk5LjYzNjY2MTc5OTY0NzIsInkiOjQ3LjkwOTA1MTEyNDA4MDA3fSx7IngiOjI0MS44ODI4MTI1LCJ5IjoxMTcuMjV9LHsieCI6MjQxLjg4MjgxMjUsInkiOjE1NC4yNX0seyJ4IjoyNDEuODgyODEyNSwieSI6MjA2LjI1fSx7IngiOjI0MS44ODI4MTI1LCJ5IjoyNzAuMjV9LHsieCI6MjQxLjg4MjgxMjUsInkiOjM0Ny4xNzU0NDE3NDE5NDMzNn0seyJ4IjoyNDEuODgyODEyNSwieSI6NDI0LjEwMDg4MzQ4Mzg4Njd9LHsieCI6MzA2LjEzODI0NDYyODkwNjI1LCJ5Ijo0NjEuMTAwODgzNDgzODg2N31d" marker-end="url(#container_flowchart-v2-pointEnd)"></path><path d="M403.413,461.101L414.921,454.934C426.429,448.768,449.445,436.434,578.437,418.735C707.428,401.036,942.396,377.971,1059.879,366.438L1177.363,354.905" id="L_Manage_DB_0" class="edge-thickness-normal edge-pattern-solid edge-thickness-normal edge-pattern-solid flowchart-link" style=";" data-edge="true" data-et="edge" data-id="L_Manage_DB_0" data-points="W3sieCI6NDAzLjQxMzM5MTExMzI4MTI1LCJ5Ijo0NjEuMTAwODgzNDgzODg2N30seyJ4Ijo0NzIuNDYwOTM3NSwieSI6NDI0LjEwMDg4MzQ4Mzg4Njd9LHsieCI6MTE4MS4zNDM3NSwieSI6MzU0LjUxNDY3NTA3MDMyOTJ9XQ==" marker-end="url(#container_flowchart-v2-pointEnd)"></path><path d="M1181.344,353.332L1038.095,365.126C894.846,376.921,608.349,400.511,467.812,417.873C327.275,435.236,332.699,446.37,335.411,451.938L338.123,457.505" id="L_DB_Manage_0" class="edge-thickness-normal edge-pattern-solid edge-thickness-normal edge-pattern-solid flowchart-link" style=";" data-edge="true" data-et="edge" data-id="L_DB_Manage_0" data-points="W3sieCI6MTE4MS4zNDM3NSwieSI6MzUzLjMzMTUzNTU0NTI2NjV9LHsieCI6MzIxLjg1MTU2MjUsInkiOjQyNC4xMDA4ODM0ODM4ODY3fSx7IngiOjMzOS44NzUwNjEwMzUxNTYyNSwieSI6NDYxLjEwMDg4MzQ4Mzg4Njd9XQ==" marker-end="url(#container_flowchart-v2-pointEnd)"></path></g><g class="edgeLabels"><g class="edgeLabel" transform="translate(819.20703125, 117.25)"><g class="label" data-id="L_Student_Auth_0" transform="translate(-62.578125, -12)"><foreignObject width="125.15625" height="24"><div xmlns="http://www.w3.org/1999/xhtml" class="labelBkg" style="display: table-cell; white-space: nowrap; line-height: 1.5; max-width: 200px; text-align: center;"><span class="edgeLabel"><p>Login Credentials</p></span></div></foreignObject></g></g><g class="edgeLabel" transform="translate(999.62890625, 117.25)"><g class="label" data-id="L_Admin_Auth_0" transform="translate(-62.578125, -12)"><foreignObject width="125.15625" height="24"><div xmlns="http://www.w3.org/1999/xhtml" class="labelBkg" style="display: table-cell; white-space: nowrap; line-height: 1.5; max-width: 200px; text-align: center;"><span class="edgeLabel"><p>Login Credentials</p></span></div></foreignObject></g></g><g class="edgeLabel" transform="translate(992.91065, 296.79833)"><g class="label" data-id="L_Auth_DB_0" transform="translate(-47.8671875, -12)"><foreignObject width="95.734375" height="24"><div xmlns="http://www.w3.org/1999/xhtml" class="labelBkg" style="display: table-cell; white-space: nowrap; line-height: 1.5; max-width: 200px; text-align: center;"><span class="edgeLabel"><p>Verify Tokens</p></span></div></foreignObject></g></g><g class="edgeLabel" transform="translate(1053.13485, 291.8721)"><g class="label" data-id="L_DB_Auth_0" transform="translate(-51.703125, -12)"><foreignObject width="103.40625" height="24"><div xmlns="http://www.w3.org/1999/xhtml" class="labelBkg" style="display: table-cell; white-space: nowrap; line-height: 1.5; max-width: 200px; text-align: center;"><span class="edgeLabel"><p>Return Tokens</p></span></div></foreignObject></g></g><g class="edgeLabel" transform="translate(112.8046875, 424.1008834838867)"><g class="label" data-id="L_Student_Upload_0" transform="translate(-84.8046875, -12)"><foreignObject width="169.609375" height="24"><div xmlns="http://www.w3.org/1999/xhtml" class="labelBkg" style="display: table-cell; white-space: nowrap; line-height: 1.5; max-width: 200px; text-align: center;"><span class="edgeLabel"><p>Uploads PDF Document</p></span></div></foreignObject></g></g><g class="edgeLabel" transform="translate(319.78125, 866.1008834838867)"><g class="label" data-id="L_Upload_Cloud_0" transform="translate(-66.8828125, -12)"><foreignObject width="133.765625" height="24"><div xmlns="http://www.w3.org/1999/xhtml" class="labelBkg" style="display: table-cell; white-space: nowrap; line-height: 1.5; max-width: 200px; text-align: center;"><span class="edgeLabel"><p>Store PDF securely</p></span></div></foreignObject></g></g><g class="edgeLabel" transform="translate(769.98345, 674.92279)"><g class="label" data-id="L_Upload_Gemini_0" transform="translate(-100, -24)"><foreignObject width="200" height="48"><div xmlns="http://www.w3.org/1999/xhtml" class="labelBkg" style="display: table; white-space: break-spaces; line-height: 1.5; max-width: 200px; text-align: center; width: 200px;"><span class="edgeLabel"><p>Extracted Text for Validation</p></span></div></foreignObject></g></g><g class="edgeLabel" transform="translate(671.66421, 672.51274)"><g class="label" data-id="L_Gemini_Upload_0" transform="translate(-100, -24)"><foreignObject width="200" height="48"><div xmlns="http://www.w3.org/1999/xhtml" class="labelBkg" style="display: table; white-space: break-spaces; line-height: 1.5; max-width: 200px; text-align: center; width: 200px;"><span class="edgeLabel"><p>AI Validation Approve/Reject</p></span></div></foreignObject></g></g><g class="edgeLabel" transform="translate(592.62109375, 564.1008834838867)"><g class="label" data-id="L_Upload_DB_0" transform="translate(-82.8828125, -12)"><foreignObject width="165.765625" height="24"><div xmlns="http://www.w3.org/1999/xhtml" class="labelBkg" style="display: table-cell; white-space: nowrap; line-height: 1.5; max-width: 200px; text-align: center;"><span class="edgeLabel"><p>Save Verified Metadata</p></span></div></foreignObject></g></g><g class="edgeLabel" transform="translate(676.06640625, 270.25)"><g class="label" data-id="L_Student_Study_0" transform="translate(-84.7109375, -12)"><foreignObject width="169.421875" height="24"><div xmlns="http://www.w3.org/1999/xhtml" class="labelBkg" style="display: table-cell; white-space: nowrap; line-height: 1.5; max-width: 200px; text-align: center;"><span class="edgeLabel"><p>Fetch Syllabus Subjects</p></span></div></foreignObject></g></g><g class="edgeLabel" transform="translate(1071.21081, 413.94263)"><g class="label" data-id="L_Study_DB_0" transform="translate(-76.4453125, -12)"><foreignObject width="152.890625" height="24"><div xmlns="http://www.w3.org/1999/xhtml" class="labelBkg" style="display: table-cell; white-space: nowrap; line-height: 1.5; max-width: 200px; text-align: center;"><span class="edgeLabel"><p>Retrieve Note Details</p></span></div></foreignObject></g></g><g class="edgeLabel" transform="translate(1001.85031, 396.85548)"><g class="label" data-id="L_DB_Study_0" transform="translate(-35.9921875, -12)"><foreignObject width="71.984375" height="24"><div xmlns="http://www.w3.org/1999/xhtml" class="labelBkg" style="display: table-cell; white-space: nowrap; line-height: 1.5; max-width: 200px; text-align: center;"><span class="edgeLabel"><p>Note Data</p></span></div></foreignObject></g></g><g class="edgeLabel" transform="translate(952.56401, 586.69113)"><g class="label" data-id="L_Study_Gemini_0" transform="translate(-100, -24)"><foreignObject width="200" height="48"><div xmlns="http://www.w3.org/1999/xhtml" class="labelBkg" style="display: table; white-space: break-spaces; line-height: 1.5; max-width: 200px; text-align: center; width: 200px;"><span class="edgeLabel"><p>Send PDF Content for Analysis</p></span></div></foreignObject></g></g><g class="edgeLabel" transform="translate(1063.38066, 576.92418)"><g class="label" data-id="L_Gemini_Study_0" transform="translate(-99.4921875, -12)"><foreignObject width="198.984375" height="24"><div xmlns="http://www.w3.org/1999/xhtml" class="labelBkg" style="display: table-cell; white-space: nowrap; line-height: 1.5; max-width: 200px; text-align: center;"><span class="edgeLabel"><p>Return AI Summary &amp; MCQs</p></span></div></foreignObject></g></g><g class="edgeLabel" transform="translate(241.8828125, 270.25)"><g class="label" data-id="L_Admin_Manage_0" transform="translate(-99.375, -12)"><foreignObject width="198.75" height="24"><div xmlns="http://www.w3.org/1999/xhtml" class="labelBkg" style="display: table-cell; white-space: nowrap; line-height: 1.5; max-width: 200px; text-align: center;"><span class="edgeLabel"><p>Request Override/Analytics</p></span></div></foreignObject></g></g><g class="edgeLabel" transform="translate(787.92159, 393.13425)"><g class="label" data-id="L_Manage_DB_0" transform="translate(-70.640625, -12)"><foreignObject width="141.28125" height="24"><div xmlns="http://www.w3.org/1999/xhtml" class="labelBkg" style="display: table-cell; white-space: nowrap; line-height: 1.5; max-width: 200px; text-align: center;"><span class="edgeLabel"><p>Update Note Status</p></span></div></foreignObject></g></g><g class="edgeLabel" transform="translate(731.08888, 390.40487)"><g class="label" data-id="L_DB_Manage_0" transform="translate(-59.96875, -12)"><foreignObject width="119.9375" height="24"><div xmlns="http://www.w3.org/1999/xhtml" class="labelBkg" style="display: table-cell; white-space: nowrap; line-height: 1.5; max-width: 200px; text-align: center;"><span class="edgeLabel"><p>Status Response</p></span></div></foreignObject></g></g></g><g class="nodes"><g class="node default" id="flowchart-Student-0" transform="translate(599.21484375, 44.125)"><circle class="basic label-container" style="" r="36.125" cx="0" cy="0"></circle><g class="label" style="" transform="translate(-28.625, -12)"><rect></rect><foreignObject width="57.25" height="24"><div xmlns="http://www.w3.org/1999/xhtml" style="display: table-cell; white-space: nowrap; line-height: 1.5; max-width: 200px; text-align: center;"><span class="nodeLabel"><p>Student</p></span></div></foreignObject></g></g><g class="node default" id="flowchart-Admin-1" transform="translate(830.07421875, 44.125)"><circle class="basic label-container" style="" r="30.671875" cx="0" cy="0"></circle><g class="label" style="" transform="translate(-23.171875, -12)"><rect></rect><foreignObject width="46.34375" height="24"><div xmlns="http://www.w3.org/1999/xhtml" style="display: table-cell; white-space: nowrap; line-height: 1.5; max-width: 200px; text-align: center;"><span class="nodeLabel"><p>Admin</p></span></div></foreignObject></g></g><g class="node default" id="flowchart-Auth-2" transform="translate(913.9921875, 206.25)"><rect class="basic label-container" style="" x="-95.484375" y="-27" width="190.96875" height="54"></rect><g class="label" style="" transform="translate(-65.484375, -12)"><rect></rect><foreignObject width="130.96875" height="24"><div xmlns="http://www.w3.org/1999/xhtml" style="display: table-cell; white-space: nowrap; line-height: 1.5; max-width: 200px; text-align: center;"><span class="nodeLabel"><p>1.0 Authentication</p></span></div></foreignObject></g></g><g class="node default" id="flowchart-Upload-3" transform="translate(319.78125, 777.1008834838867)"><rect class="basic label-container" style="" x="-118.4765625" y="-27" width="236.953125" height="54"></rect><g class="label" style="" transform="translate(-88.4765625, -12)"><rect></rect><foreignObject width="176.953125" height="24"><div xmlns="http://www.w3.org/1999/xhtml" style="display: table-cell; white-space: nowrap; line-height: 1.5; max-width: 200px; text-align: center;"><span class="nodeLabel"><p>2.0 Note Upload &amp; Verify</p></span></div></foreignObject></g></g><g class="node default" id="flowchart-Study-4" transform="translate(892.1953125, 488.1008834838867)"><rect class="basic label-container" style="" x="-108.203125" y="-27" width="216.40625" height="54"></rect><g class="label" style="" transform="translate(-78.203125, -12)"><rect></rect><foreignObject width="156.40625" height="24"><div xmlns="http://www.w3.org/1999/xhtml" style="display: table-cell; white-space: nowrap; line-height: 1.5; max-width: 200px; text-align: center;"><span class="nodeLabel"><p>3.0 Active Study Tools</p></span></div></foreignObject></g></g><g class="node default" id="flowchart-Manage-5" transform="translate(353.02734375, 488.1008834838867)"><rect class="basic label-container" style="" x="-114.6796875" y="-27" width="229.359375" height="54"></rect><g class="label" style="" transform="translate(-84.6796875, -12)"><rect></rect><foreignObject width="169.359375" height="24"><div xmlns="http://www.w3.org/1999/xhtml" style="display: table-cell; white-space: nowrap; line-height: 1.5; max-width: 200px; text-align: center;"><span class="nodeLabel"><p>4.0 Admin Management</p></span></div></foreignObject></g></g><g class="node default" id="flowchart-DB-6" transform="translate(1256.109375, 347.17544174194336)"><path d="M0,13.616960728514515 a74.765625,13.616960728514515 0,0,0 149.53125,0 a74.765625,13.616960728514515 0,0,0 -149.53125,0 l0,52.61696072851451 a74.765625,13.616960728514515 0,0,0 149.53125,0 l0,-52.61696072851451" class="basic label-container" style="" transform="translate(-74.765625, -39.92544109277177)"></path><g class="label" style="" transform="translate(-67.265625, -2)"><rect></rect><foreignObject width="134.53125" height="24"><div xmlns="http://www.w3.org/1999/xhtml" style="display: table-cell; white-space: nowrap; line-height: 1.5; max-width: 200px; text-align: center;"><span class="nodeLabel"><p>Firestore Database</p></span></div></foreignObject></g></g><g class="node default" id="flowchart-Cloud-7" transform="translate(319.78125, 943.182315826416)"><path d="M0,13.720956462891948 a76.03125,13.720956462891948 0,0,0 152.0625,0 a76.03125,13.720956462891948 0,0,0 -152.0625,0 l0,52.72095646289195 a76.03125,13.720956462891948 0,0,0 152.0625,0 l0,-52.72095646289195" class="basic label-container" style="" transform="translate(-76.03125, -40.08143469433792)"></path><g class="label" style="" transform="translate(-68.53125, -2)"><rect></rect><foreignObject width="137.0625" height="24"><div xmlns="http://www.w3.org/1999/xhtml" style="display: table-cell; white-space: nowrap; line-height: 1.5; max-width: 200px; text-align: center;"><span class="nodeLabel"><p>Cloudinary Storage</p></span></div></foreignObject></g></g><g class="node default" id="flowchart-Gemini-8" transform="translate(1275.3971328735352, 632.6008834838867)"><g class="basic label-container"><path d="M-84.30338541666667 -19.5 C-55.82644623503077 -19.5, -27.34950705339488 -19.5, 0 -19.5 C24.777452764793072 -19.5, 49.554905529586144 -19.5, 84.30338541666667 -19.5 C87.93126405459782 -12.24424272413772, 91.55914269252895 -4.988485448275441, 94.05338541666667 0 C91.60160582620792 4.903559180917518, 89.14982623574916 9.807118361835036, 84.30338541666667 19.5 C55.649216050273516 19.5, 26.99504668388036 19.5, 0 19.5 C-31.989545391362125 19.5, -63.97909078272425 19.5, -84.30338541666667 19.5 C-87.01594534980015 14.074880133733037, -89.72850528293364 8.649760267466075, -94.05338541666667 0 C-90.6326108490935 -6.841549135146361, -87.2118362815203 -13.683098270292723, -84.30338541666667 -19.5" stroke="none" stroke-width="0" fill="#ECECFF" style=""></path><path d="M-84.30338541666667 -19.5 C-62.66404867764602 -19.5, -41.02471193862537 -19.5, 0 -19.5 M-84.30338541666667 -19.5 C-57.76740902808682 -19.5, -31.231432639506963 -19.5, 0 -19.5 M0 -19.5 C28.743200156686747 -19.5, 57.486400313373494 -19.5, 84.30338541666667 -19.5 M0 -19.5 C28.372539662493498 -19.5, 56.745079324986996 -19.5, 84.30338541666667 -19.5 M84.30338541666667 -19.5 C87.82313763113704 -12.460495571059251, 91.34288984560742 -5.420991142118501, 94.05338541666667 0 M84.30338541666667 -19.5 C86.60122741821425 -14.904315996904856, 88.89906941976182 -10.308631993809712, 94.05338541666667 0 M94.05338541666667 0 C90.55528145525818 6.996207922816978, 87.0571774938497 13.992415845633955, 84.30338541666667 19.5 M94.05338541666667 0 C92.01331499994672 4.080140833439909, 89.97324458322676 8.160281666879818, 84.30338541666667 19.5 M84.30338541666667 19.5 C58.99274790564814 19.5, 33.6821103946296 19.5, 0 19.5 M84.30338541666667 19.5 C52.504140712679806 19.5, 20.70489600869294 19.5, 0 19.5 M0 19.5 C-17.223049509739006 19.5, -34.44609901947801 19.5, -84.30338541666667 19.5 M0 19.5 C-20.06625995982326 19.5, -40.13251991964652 19.5, -84.30338541666667 19.5 M-84.30338541666667 19.5 C-88.11679183910248 11.873187155128392, -91.93019826153828 4.246374310256783, -94.05338541666667 0 M-84.30338541666667 19.5 C-86.36108226391427 15.384606305504793, -88.41877911116188 11.269212611009586, -94.05338541666667 0 M-94.05338541666667 0 C-91.6099386629855 -4.886893507362333, -89.16649190930434 -9.773787014724666, -84.30338541666667 -19.5 M-94.05338541666667 0 C-91.6132657138072 -4.8802394057189495, -89.17314601094772 -9.760478811437899, -84.30338541666667 -19.5" stroke="#9370DB" stroke-width="1.3" fill="none" stroke-dasharray="0 0" style=""></path></g><g class="label" style="" transform="translate(-61.8671875, -12)"><rect></rect><foreignObject width="123.734375" height="24"><div xmlns="http://www.w3.org/1999/xhtml" style="display: table-cell; white-space: nowrap; line-height: 1.5; max-width: 200px; text-align: center;"><span class="nodeLabel"><p>Google Gemini AI</p></span></div></foreignObject></g></g></g></g></g></svg>